<svg width="184" height="31" viewBox="0 0 184 31" fill="none" xmlns="http://www.w3.org/2000/svg">
<g clip-path="url(#clip0_5_2895)">
<path d="M15 0.366394L27.9904 7.86639V22.8664L15 30.3664L2.00962 22.8664V7.86639L15 0.366394Z" fill="#065E7C"/>
<path d="M43.6133 23.3664H40.2148V9.56171C40.2148 8.60077 40.4023 7.79218 40.7773 7.13593C41.1602 6.47186 41.6953 5.97186 42.3828 5.63593C43.0781 5.29218 43.9023 5.1203 44.8555 5.1203C45.168 5.1203 45.4688 5.14374 45.7578 5.19061C46.0469 5.22968 46.3281 5.28046 46.6016 5.34296L46.5664 7.88593C46.418 7.84686 46.2617 7.81952 46.0977 7.80389C45.9336 7.78827 45.7422 7.78046 45.5234 7.78046C45.1172 7.78046 44.7695 7.85077 44.4805 7.99139C44.1992 8.12421 43.9844 8.32343 43.8359 8.58905C43.6875 8.85468 43.6133 9.17889 43.6133 9.56171V23.3664ZM46.1445 10.6867V13.0773H38.3281V10.6867H46.1445ZM47.375 17.1555V16.9094C47.375 15.9797 47.5078 15.1242 47.7734 14.343C48.0391 13.5539 48.4258 12.8703 48.9336 12.2922C49.4414 11.7141 50.0664 11.2648 50.8086 10.9445C51.5508 10.6164 52.4023 10.4523 53.3633 10.4523C54.3242 10.4523 55.1797 10.6164 55.9297 10.9445C56.6797 11.2648 57.3086 11.7141 57.8164 12.2922C58.332 12.8703 58.7227 13.5539 58.9883 14.343C59.2539 15.1242 59.3867 15.9797 59.3867 16.9094V17.1555C59.3867 18.0773 59.2539 18.9328 58.9883 19.7219C58.7227 20.5031 58.332 21.1867 57.8164 21.7726C57.3086 22.3508 56.6836 22.8 55.9414 23.1203C55.1992 23.4406 54.3477 23.6008 53.3867 23.6008C52.4258 23.6008 51.5703 23.4406 50.8203 23.1203C50.0781 22.8 49.4492 22.3508 48.9336 21.7726C48.4258 21.1867 48.0391 20.5031 47.7734 19.7219C47.5078 18.9328 47.375 18.0773 47.375 17.1555ZM50.75 16.9094V17.1555C50.75 17.6867 50.7969 18.1828 50.8906 18.6437C50.9844 19.1047 51.1328 19.5109 51.3359 19.8625C51.5469 20.2062 51.8203 20.4758 52.1562 20.6711C52.4922 20.8664 52.9023 20.9641 53.3867 20.9641C53.8555 20.9641 54.2578 20.8664 54.5938 20.6711C54.9297 20.4758 55.1992 20.2062 55.4023 19.8625C55.6055 19.5109 55.7539 19.1047 55.8477 18.6437C55.9492 18.1828 56 17.6867 56 17.1555V16.9094C56 16.3937 55.9492 15.9094 55.8477 15.4562C55.7539 14.9953 55.6016 14.5891 55.3906 14.2375C55.1875 13.8781 54.918 13.5969 54.582 13.3937C54.2461 13.1906 53.8398 13.0891 53.3633 13.0891C52.8867 13.0891 52.4805 13.1906 52.1445 13.3937C51.8164 13.5969 51.5469 13.8781 51.3359 14.2375C51.1328 14.5891 50.9844 14.9953 50.8906 15.4562C50.7969 15.9094 50.75 16.3937 50.75 16.9094ZM60.9219 17.1555V16.9094C60.9219 15.9797 61.0547 15.1242 61.3203 14.343C61.5859 13.5539 61.9727 12.8703 62.4805 12.2922C62.9883 11.7141 63.6133 11.2648 64.3555 10.9445C65.0977 10.6164 65.9492 10.4523 66.9102 10.4523C67.8711 10.4523 68.7266 10.6164 69.4766 10.9445C70.2266 11.2648 70.8555 11.7141 71.3633 12.2922C71.8789 12.8703 72.2695 13.5539 72.5352 14.343C72.8008 15.1242 72.9336 15.9797 72.9336 16.9094V17.1555C72.9336 18.0773 72.8008 18.9328 72.5352 19.7219C72.2695 20.5031 71.8789 21.1867 71.3633 21.7726C70.8555 22.3508 70.2305 22.8 69.4883 23.1203C68.7461 23.4406 67.8945 23.6008 66.9336 23.6008C65.9727 23.6008 65.1172 23.4406 64.3672 23.1203C63.625 22.8 62.9961 22.3508 62.4805 21.7726C61.9727 21.1867 61.5859 20.5031 61.3203 19.7219C61.0547 18.9328 60.9219 18.0773 60.9219 17.1555ZM64.2969 16.9094V17.1555C64.2969 17.6867 64.3438 18.1828 64.4375 18.6437C64.5312 19.1047 64.6797 19.5109 64.8828 19.8625C65.0938 20.2062 65.3672 20.4758 65.7031 20.6711C66.0391 20.8664 66.4492 20.9641 66.9336 20.9641C67.4023 20.9641 67.8047 20.8664 68.1406 20.6711C68.4766 20.4758 68.7461 20.2062 68.9492 19.8625C69.1523 19.5109 69.3008 19.1047 69.3945 18.6437C69.4961 18.1828 69.5469 17.6867 69.5469 17.1555V16.9094C69.5469 16.3937 69.4961 15.9094 69.3945 15.4562C69.3008 14.9953 69.1484 14.5891 68.9375 14.2375C68.7344 13.8781 68.4648 13.5969 68.1289 13.3937C67.793 13.1906 67.3867 13.0891 66.9102 13.0891C66.4336 13.0891 66.0273 13.1906 65.6914 13.3937C65.3633 13.5969 65.0938 13.8781 64.8828 14.2375C64.6797 14.5891 64.5312 14.9953 64.4375 15.4562C64.3438 15.9094 64.2969 16.3937 64.2969 16.9094ZM82.4961 20.6008V5.36639H85.8945V23.3664H82.8359L82.4961 20.6008ZM74.4805 17.1789V16.9328C74.4805 15.9641 74.5898 15.0851 74.8086 14.2961C75.0273 13.4992 75.3477 12.8156 75.7695 12.2453C76.1914 11.675 76.7109 11.2336 77.3281 10.9211C77.9453 10.6086 78.6484 10.4523 79.4375 10.4523C80.1797 10.4523 80.8281 10.6086 81.3828 10.9211C81.9453 11.2336 82.4219 11.6789 82.8125 12.257C83.2109 12.8273 83.5312 13.5031 83.7734 14.2844C84.0156 15.0578 84.1914 15.9055 84.3008 16.8273V17.3664C84.1914 18.2492 84.0156 19.0695 83.7734 19.8273C83.5312 20.5851 83.2109 21.2492 82.8125 21.8195C82.4219 22.382 81.9453 22.8195 81.3828 23.132C80.8203 23.4445 80.1641 23.6008 79.4141 23.6008C78.625 23.6008 77.9219 23.4406 77.3047 23.1203C76.6953 22.8 76.1797 22.3508 75.7578 21.7726C75.3438 21.1945 75.0273 20.5148 74.8086 19.7336C74.5898 18.9523 74.4805 18.1008 74.4805 17.1789ZM77.8555 16.9328V17.1789C77.8555 17.7023 77.8945 18.1906 77.9727 18.6437C78.0586 19.0969 78.1953 19.4992 78.3828 19.8508C78.5781 20.1945 78.8281 20.4641 79.1328 20.6594C79.4453 20.8469 79.8242 20.9406 80.2695 20.9406C80.8477 20.9406 81.3242 20.8117 81.6992 20.5539C82.0742 20.2883 82.3594 19.925 82.5547 19.4641C82.7578 19.0031 82.875 18.4719 82.9062 17.8703V16.3351C82.8828 15.843 82.8125 15.4016 82.6953 15.0109C82.5859 14.6125 82.4219 14.2726 82.2031 13.9914C81.9922 13.7101 81.7266 13.4914 81.4062 13.3351C81.0938 13.1789 80.7227 13.1008 80.293 13.1008C79.8555 13.1008 79.4805 13.2023 79.168 13.4055C78.8555 13.6008 78.6016 13.8703 78.4062 14.2141C78.2188 14.5578 78.0781 14.9641 77.9844 15.4328C77.8984 15.8937 77.8555 16.3937 77.8555 16.9328ZM100.344 23.6008C99.3594 23.6008 98.4766 23.4445 97.6953 23.132C96.9141 22.8117 96.25 22.3703 95.7031 21.8078C95.1641 21.2453 94.75 20.593 94.4609 19.8508C94.1719 19.1008 94.0273 18.3039 94.0273 17.4601V16.9914C94.0273 16.0305 94.1641 15.1516 94.4375 14.3547C94.7109 13.5578 95.1016 12.8664 95.6094 12.2805C96.125 11.6945 96.75 11.2453 97.4844 10.9328C98.2188 10.6125 99.0469 10.4523 99.9688 10.4523C100.867 10.4523 101.664 10.6008 102.359 10.8976C103.055 11.1945 103.637 11.6164 104.105 12.1633C104.582 12.7101 104.941 13.3664 105.184 14.132C105.426 14.8898 105.547 15.7336 105.547 16.6633V18.0695H95.4688V15.8195H102.23V15.5617C102.23 15.093 102.145 14.675 101.973 14.3078C101.809 13.9328 101.559 13.6359 101.223 13.4172C100.887 13.1984 100.457 13.0891 99.9336 13.0891C99.4883 13.0891 99.1055 13.1867 98.7852 13.382C98.4648 13.5773 98.2031 13.8508 98 14.2023C97.8047 14.5539 97.6562 14.968 97.5547 15.4445C97.4609 15.9133 97.4141 16.4289 97.4141 16.9914V17.4601C97.4141 17.968 97.4844 18.4367 97.625 18.8664C97.7734 19.2961 97.9805 19.6672 98.2461 19.9797C98.5195 20.2922 98.8477 20.5344 99.2305 20.7062C99.6211 20.8781 100.062 20.9641 100.555 20.9641C101.164 20.9641 101.73 20.8469 102.254 20.6125C102.785 20.3703 103.242 20.007 103.625 19.5226L105.266 21.3039C105 21.6867 104.637 22.0539 104.176 22.4055C103.723 22.757 103.176 23.0461 102.535 23.2726C101.895 23.4914 101.164 23.6008 100.344 23.6008ZM110.188 10.6867L112.285 14.5422L114.441 10.6867H118.039L114.453 16.8859L118.203 23.3664H114.594L112.309 19.2883L110.023 23.3664H106.414L110.164 16.8859L106.578 10.6867H110.188ZM123.055 13.1242V28.2414H119.68V10.6867H122.809L123.055 13.1242ZM131.082 16.8859V17.132C131.082 18.0539 130.973 18.9094 130.754 19.6984C130.543 20.4875 130.23 21.175 129.816 21.7609C129.402 22.3391 128.887 22.7922 128.27 23.1203C127.66 23.4406 126.957 23.6008 126.16 23.6008C125.387 23.6008 124.715 23.4445 124.145 23.132C123.574 22.8195 123.094 22.382 122.703 21.8195C122.32 21.2492 122.012 20.5891 121.777 19.8391C121.543 19.0891 121.363 18.2844 121.238 17.425V16.7805C121.363 15.8586 121.543 15.0148 121.777 14.2492C122.012 13.4758 122.32 12.8078 122.703 12.2453C123.094 11.675 123.57 11.2336 124.133 10.9211C124.703 10.6086 125.371 10.4523 126.137 10.4523C126.941 10.4523 127.648 10.6047 128.258 10.9094C128.875 11.2141 129.391 11.6516 129.805 12.2219C130.227 12.7922 130.543 13.4719 130.754 14.2609C130.973 15.05 131.082 15.925 131.082 16.8859ZM127.695 17.132V16.8859C127.695 16.3469 127.648 15.8508 127.555 15.3976C127.469 14.9367 127.328 14.5344 127.133 14.1906C126.945 13.8469 126.695 13.5812 126.383 13.3937C126.078 13.1984 125.707 13.1008 125.27 13.1008C124.809 13.1008 124.414 13.175 124.086 13.3234C123.766 13.4719 123.504 13.6867 123.301 13.968C123.098 14.2492 122.945 14.5851 122.844 14.9758C122.742 15.3664 122.68 15.8078 122.656 16.3V17.9289C122.695 18.507 122.805 19.0266 122.984 19.4875C123.164 19.9406 123.441 20.3 123.816 20.5656C124.191 20.8312 124.684 20.9641 125.293 20.9641C125.738 20.9641 126.113 20.8664 126.418 20.6711C126.723 20.468 126.969 20.1906 127.156 19.8391C127.352 19.4875 127.488 19.0812 127.566 18.6203C127.652 18.1594 127.695 17.6633 127.695 17.132ZM136.742 5.36639V23.3664H133.355V5.36639H136.742ZM138.992 17.1555V16.9094C138.992 15.9797 139.125 15.1242 139.391 14.343C139.656 13.5539 140.043 12.8703 140.551 12.2922C141.059 11.7141 141.684 11.2648 142.426 10.9445C143.168 10.6164 144.02 10.4523 144.98 10.4523C145.941 10.4523 146.797 10.6164 147.547 10.9445C148.297 11.2648 148.926 11.7141 149.434 12.2922C149.949 12.8703 150.34 13.5539 150.605 14.343C150.871 15.1242 151.004 15.9797 151.004 16.9094V17.1555C151.004 18.0773 150.871 18.9328 150.605 19.7219C150.34 20.5031 149.949 21.1867 149.434 21.7726C148.926 22.3508 148.301 22.8 147.559 23.1203C146.816 23.4406 145.965 23.6008 145.004 23.6008C144.043 23.6008 143.188 23.4406 142.438 23.1203C141.695 22.8 141.066 22.3508 140.551 21.7726C140.043 21.1867 139.656 20.5031 139.391 19.7219C139.125 18.9328 138.992 18.0773 138.992 17.1555ZM142.367 16.9094V17.1555C142.367 17.6867 142.414 18.1828 142.508 18.6437C142.602 19.1047 142.75 19.5109 142.953 19.8625C143.164 20.2062 143.438 20.4758 143.773 20.6711C144.109 20.8664 144.52 20.9641 145.004 20.9641C145.473 20.9641 145.875 20.8664 146.211 20.6711C146.547 20.4758 146.816 20.2062 147.02 19.8625C147.223 19.5109 147.371 19.1047 147.465 18.6437C147.566 18.1828 147.617 17.6867 147.617 17.1555V16.9094C147.617 16.3937 147.566 15.9094 147.465 15.4562C147.371 14.9953 147.219 14.5891 147.008 14.2375C146.805 13.8781 146.535 13.5969 146.199 13.3937C145.863 13.1906 145.457 13.0891 144.98 13.0891C144.504 13.0891 144.098 13.1906 143.762 13.3937C143.434 13.5969 143.164 13.8781 142.953 14.2375C142.75 14.5891 142.602 14.9953 142.508 15.4562C142.414 15.9094 142.367 16.3937 142.367 16.9094ZM156.453 13.4523V23.3664H153.078V10.6867H156.254L156.453 13.4523ZM160.273 10.6047L160.215 13.7336C160.051 13.7101 159.852 13.6906 159.617 13.675C159.391 13.6516 159.184 13.6398 158.996 13.6398C158.52 13.6398 158.105 13.7023 157.754 13.8273C157.41 13.9445 157.121 14.1203 156.887 14.3547C156.66 14.5891 156.488 14.8742 156.371 15.2101C156.262 15.5461 156.199 15.9289 156.184 16.3586L155.504 16.1476C155.504 15.3273 155.586 14.5734 155.75 13.8859C155.914 13.1906 156.152 12.5851 156.465 12.0695C156.785 11.5539 157.176 11.1555 157.637 10.8742C158.098 10.593 158.625 10.4523 159.219 10.4523C159.406 10.4523 159.598 10.468 159.793 10.4992C159.988 10.5226 160.148 10.5578 160.273 10.6047ZM167.469 23.6008C166.484 23.6008 165.602 23.4445 164.82 23.132C164.039 22.8117 163.375 22.3703 162.828 21.8078C162.289 21.2453 161.875 20.593 161.586 19.8508C161.297 19.1008 161.152 18.3039 161.152 17.4601V16.9914C161.152 16.0305 161.289 15.1516 161.562 14.3547C161.836 13.5578 162.227 12.8664 162.734 12.2805C163.25 11.6945 163.875 11.2453 164.609 10.9328C165.344 10.6125 166.172 10.4523 167.094 10.4523C167.992 10.4523 168.789 10.6008 169.484 10.8976C170.18 11.1945 170.762 11.6164 171.23 12.1633C171.707 12.7101 172.066 13.3664 172.309 14.132C172.551 14.8898 172.672 15.7336 172.672 16.6633V18.0695H162.594V15.8195H169.355V15.5617C169.355 15.093 169.27 14.675 169.098 14.3078C168.934 13.9328 168.684 13.6359 168.348 13.4172C168.012 13.1984 167.582 13.0891 167.059 13.0891C166.613 13.0891 166.23 13.1867 165.91 13.382C165.59 13.5773 165.328 13.8508 165.125 14.2023C164.93 14.5539 164.781 14.968 164.68 15.4445C164.586 15.9133 164.539 16.4289 164.539 16.9914V17.4601C164.539 17.968 164.609 18.4367 164.75 18.8664C164.898 19.2961 165.105 19.6672 165.371 19.9797C165.645 20.2922 165.973 20.5344 166.355 20.7062C166.746 20.8781 167.188 20.9641 167.68 20.9641C168.289 20.9641 168.855 20.8469 169.379 20.6125C169.91 20.3703 170.367 20.007 170.75 19.5226L172.391 21.3039C172.125 21.6867 171.762 22.0539 171.301 22.4055C170.848 22.757 170.301 23.0461 169.66 23.2726C169.02 23.4914 168.289 23.6008 167.469 23.6008ZM177.969 13.4523V23.3664H174.594V10.6867H177.77L177.969 13.4523ZM181.789 10.6047L181.73 13.7336C181.566 13.7101 181.367 13.6906 181.133 13.675C180.906 13.6516 180.699 13.6398 180.512 13.6398C180.035 13.6398 179.621 13.7023 179.27 13.8273C178.926 13.9445 178.637 14.1203 178.402 14.3547C178.176 14.5891 178.004 14.8742 177.887 15.2101C177.777 15.5461 177.715 15.9289 177.699 16.3586L177.02 16.1476C177.02 15.3273 177.102 14.5734 177.266 13.8859C177.43 13.1906 177.668 12.5851 177.98 12.0695C178.301 11.5539 178.691 11.1555 179.152 10.8742C179.613 10.593 180.141 10.4523 180.734 10.4523C180.922 10.4523 181.113 10.468 181.309 10.4992C181.504 10.5226 181.664 10.5578 181.789 10.6047Z" fill="white"/>
</g>
<defs>
<clipPath id="clip0_5_2895">
<rect width="184" height="30" fill="white" transform="translate(0 0.366394)"/>
</clipPath>
</defs>
</svg>
